<svg width="32" height="32" viewBox="0 0 32 32" fill="none" xmlns="http://www.w3.org/2000/svg">
<mask id="mask0_22_231" style="mask-type:alpha" maskUnits="userSpaceOnUse" x="0" y="0" width="32" height="32">
<rect x="0.140991" y="9.95898" width="24" height="24" transform="rotate(-24.1472 0.140991 9.95898)" fill="#D9D9D9"/>
</mask>
<g mask="url(#mask0_22_231)">
<path d="M20.0908 25.125C18.8285 25.6909 17.5349 25.9831 16.2099 26.0018C14.8849 26.0204 13.6277 25.8032 12.4383 25.3502C11.2489 24.8971 10.1658 24.2228 9.18901 23.3274C8.21223 22.4319 7.4409 21.3531 6.875 20.0908C6.3091 18.8285 6.01683 17.5349 5.99817 16.2099C5.97952 14.8849 6.19673 13.6277 6.6498 12.4383C7.10287 11.2489 7.77713 10.1658 8.67257 9.18901C9.568 8.21223 10.6469 7.4409 11.9092 6.875C13.1714 6.3091 14.4651 6.01683 15.79 5.99817C17.115 5.97952 18.3722 6.19673 19.5616 6.6498C20.7511 7.10288 21.8342 7.77713 22.8109 8.67257C23.7877 9.56801 24.5591 10.6469 25.125 11.9092C25.6908 13.1714 25.9831 14.4651 26.0018 15.7901C26.0204 17.115 25.8032 18.3722 25.3502 19.5616C24.8971 20.7511 24.2228 21.8342 23.3274 22.8109C22.4319 23.7877 21.3531 24.5591 20.0908 25.125ZM18.3397 23.6634L17.542 21.884C17.0401 22.109 16.5304 22.123 16.0127 21.9258C15.4951 21.7286 15.1238 21.3791 14.8988 20.8772L14.4897 19.9647L8.14615 17.5483C8.22325 17.8425 8.30415 18.135 8.38885 18.4258C8.47356 18.7166 8.57727 18.9989 8.69999 19.2726C9.52498 21.1128 10.8522 22.4539 12.6817 23.2958C14.5112 24.1377 16.3972 24.2603 18.3397 23.6634ZM23.5928 18.5139C23.7469 18.0429 23.8587 17.559 23.9282 17.0621C23.9977 16.5652 24.0185 16.0719 23.9907 15.582C23.9629 15.0922 23.892 14.608 23.7779 14.1295C23.6638 13.651 23.5045 13.1836 23.3 12.7273C22.6318 11.2369 21.6071 10.0616 20.226 9.20127C18.8449 8.34098 17.3397 7.94731 15.7103 8.02025L15.8739 8.38525C16.0989 8.88712 16.1128 9.39687 15.9156 9.91449C15.7185 10.4321 15.3689 10.8034 14.8671 11.0284L13.0421 11.8466L13.8602 13.6716C13.9761 13.9301 13.9858 14.186 13.8894 14.4393C13.7929 14.6926 13.6154 14.8772 13.3568 14.9931L11.5318 15.8113L12.35 17.6363L17.825 15.1818C18.0835 15.0659 18.3394 15.0562 18.5927 15.1527C18.846 15.2492 19.0306 15.4267 19.1466 15.6852L20.3738 18.4227L21.2863 18.0136C21.6817 17.8364 22.0919 17.794 22.517 17.8866C22.9421 17.9791 23.3006 18.1882 23.5928 18.5139Z" fill="#A6A35A"/>
</g>
</svg>
